<svg width="65" height="61" viewBox="0 0 65 61" fill="none" xmlns="http://www.w3.org/2000/svg">
<g opacity="0.5">
<path d="M63.5059 0.557657L47.9744 55.5785L37.8697 45.9916L45.6519 18.4534C45.8594 17.775 45.2071 17.2639 44.6186 17.4249L15.5529 24.8185L5.53937 15.3181L63.5059 0.557657Z" fill="#00B37E"/>
<path d="M63.5059 0.557657L47.9744 55.5785L37.8697 45.9916L45.6519 18.4534C45.8594 17.775 45.2071 17.2639 44.6186 17.4249L15.5529 24.8185L5.53937 15.3181L63.5059 0.557657Z" stroke="black"/>
<path d="M63.5059 0.557657L47.9744 55.5785L37.8697 45.9916L45.6519 18.4534C45.8594 17.775 45.2071 17.2639 44.6186 17.4249L15.5529 24.8185L5.53937 15.3181L63.5059 0.557657Z" stroke="black" stroke-opacity="0.2"/>
<path d="M63.5059 0.557657L47.9744 55.5785L37.8697 45.9916L45.6519 18.4534C45.8594 17.775 45.2071 17.2639 44.6186 17.4249L15.5529 24.8185L5.53937 15.3181L63.5059 0.557657Z" stroke="black" stroke-opacity="0.2"/>
</g>
<g opacity="0.5">
<path d="M36.7429 46.301L32.8527 60.1414L0.67582 29.6384L15.2644 25.9232L36.7429 46.301ZM33.0253 60.305C33.0255 60.3052 33.0257 60.3055 33.026 60.3057L33.0258 60.3055L33.0253 60.305Z" fill="#00B37E"/>
<path d="M36.7429 46.301L32.8527 60.1414L0.67582 29.6384L15.2644 25.9232L36.7429 46.301ZM33.0253 60.305C33.0255 60.3052 33.0257 60.3055 33.026 60.3057L33.0258 60.3055L33.0253 60.305Z" stroke="black"/>
<path d="M36.7429 46.301L32.8527 60.1414L0.67582 29.6384L15.2644 25.9232L36.7429 46.301ZM33.0253 60.305C33.0255 60.3052 33.0257 60.3055 33.026 60.3057L33.0258 60.3055L33.0253 60.305Z" stroke="black" stroke-opacity="0.2"/>
<path d="M36.7429 46.301L32.8527 60.1414L0.67582 29.6384L15.2644 25.9232L36.7429 46.301ZM33.0253 60.305C33.0255 60.3052 33.0257 60.3055 33.026 60.3057L33.0258 60.3055L33.0253 60.305Z" stroke="black" stroke-opacity="0.2"/>
</g>
<path d="M16.4092 25.6317L44.61 18.4581L37.0489 45.2137L16.4092 25.6317Z" fill="#00B37E"/>
<path d="M16.4092 25.6317L44.61 18.4581L37.0489 45.2137L16.4092 25.6317Z" stroke="black"/>
<path d="M16.4092 25.6317L44.61 18.4581L37.0489 45.2137L16.4092 25.6317Z" stroke="black" stroke-opacity="0.2"/>
<path d="M16.4092 25.6317L44.61 18.4581L37.0489 45.2137L16.4092 25.6317Z" stroke="black" stroke-opacity="0.2"/>
</svg>
